<?xml version="1.0" encoding="UTF-8"?>
<svg width="17px" height="16px" viewBox="0 0 17 16" version="1.1" xmlns="http://www.w3.org/2000/svg" xmlns:xlink="http://www.w3.org/1999/xlink">
    <title>药品领用灰</title>
    <g id="切图" stroke="none" stroke-width="1" fill="none" fill-rule="evenodd">
        <g id="药品领用灰" fill="#A9B6D1">
            <rect id="矩形" x="1" y="0" width="12" height="2" rx="1"></rect>
            <path d="M12.5,16 L1.5,16 C0.671572875,16 3.23497668e-16,15.3284271 0,14.5 L0,4.5 C1.20591542e-16,3.67157288 0.671572875,3 1.5,3 L2,3 L2,2 L12,2 L12,3 L12.5,3 C13.3284271,3 14,3.67157288 14,4.5 L14,11.5 L10.0236054,11.5 L10.0236054,14.5 L14,14.5 C14,15.3284271 13.3284271,16 12.5,16 Z M6,6 L6,8 L4,8 L4,10 L6,10 L6,12 L8,12 L8,10 L10,10 L10,8 L8,8 L8,6 L6,6 Z" id="形状结合"></path>
            <polygon id="形状结合" fill-rule="nonzero" points="15.0236054 11.3636039 16.7896054 13.5 11.0236054 13.5 11.0236054 12.5 15.0236054 12.5"></polygon>
        </g>
    </g>
</svg>