<?xml version="1.0" encoding="UTF-8"?>
<svg width="19px" height="15px" viewBox="0 0 19 15" version="1.1" xmlns="http://www.w3.org/2000/svg" xmlns:xlink="http://www.w3.org/1999/xlink">
    <title>费用管理灰</title>
    <g id="切图" stroke="none" stroke-width="1" fill="none" fill-rule="evenodd">
        <g id="费用管理灰" fill="#A9B6D1">
            <path d="M14,0 C15.1045695,-2.02906125e-16 16,0.8954305 16,2 L16.0005849,6.67685683 C15.8987487,6.58633087 15.7755293,6.52745807 15.6339816,6.50753 L15.524432,6.5 L14.4561634,6.5 L14.30307,6.51878205 L14.1780573,6.56776314 L14.072248,6.62400868 C13.9171813,6.71969696 13.8276867,6.84244459 13.7645526,6.98823826 L13.721532,7.10184194 L13.695,7.211 L13.5529194,7.26029275 L13.3581609,7.33853015 L13.261,7.383 L13.15378,7.32461485 L13.0491357,7.27456654 L12.9243053,7.22811108 C12.8710035,7.21152173 12.8197977,7.20037235 12.7674553,7.19478269 L12.687685,7.19058296 L12.5918421,7.19420899 L12.5020956,7.20615288 C12.3864216,7.22837507 12.2865181,7.27732995 12.2002131,7.37155419 L12.138,7.451 L12,7.589 L12,6 L9.006,6 L9.003,5.584 L10.8327558,3.69578118 L9.39624814,2.30421882 L7.999,3.746 L6.74775464,2.33602485 L5.25224536,3.66397515 L7.004,5.637 L7.006,6 L4,6 L4,8 L7.018,8 L7.03517416,10.8792767 L9.03513834,10.8673053 L9.018,8 L11.589,8 L11.4365931,8.15300687 L11.3566142,8.24888288 L11.2965474,8.36115763 L11.2546529,8.46976017 C11.1881952,8.6834397 11.2232032,8.87640588 11.3142677,9.05657862 L11.3642611,9.14563554 L11.412,9.233 L11.3241168,9.43801886 L11.234,9.686 L11.0439304,9.74477494 L10.9372661,9.79103255 C10.6996799,9.90961975 10.5430877,10.1019847 10.5076519,10.3514985 L10.5,10.4618834 L10.5,11.5470852 L10.5188189,11.7002654 L10.5678825,11.8252936 L10.6241968,11.9310961 C10.7199861,12.0861365 10.8427959,12.1755368 10.9886782,12.2385937 L11.1023543,12.2815611 L11.234,12.322 L11.2870424,12.4686186 L11.3244174,12.5605323 L11.3640743,12.6507908 L11.409,12.743 L11.3524558,12.8476688 L11.330774,12.8839658 L11.2816687,12.9920551 C11.1827256,13.2459583 11.1950867,13.5092025 11.3576256,13.7288005 L11.4365931,13.8200873 L11.616,14 L2,14 C0.8954305,14 2.16850805e-13,13.1045695 2.16715534e-13,12 L2.16715534e-13,2 C2.16580264e-13,0.8954305 0.8954305,2.02906125e-16 2,0 L14,0 Z" id="形状结合"></path>
            <path d="M15.335,7.499 L14.655,7.494 L14.5353409,8.01188056 L14.0421477,8.14887197 C13.9122853,8.18975241 13.7868715,8.23901957 13.6712772,8.29450485 L13.5059218,8.38212531 L13.2605274,8.52584197 L12.756,8.246 L12.274,8.725 L12.5464313,9.21795369 L12.3246321,9.63964952 C12.2731329,9.74914732 12.2260487,9.8709416 12.1825007,10.0054723 L12.1197209,10.2168757 L12.0474105,10.4817644 L11.498,10.651 L11.493,11.355 L12.0436482,11.5260408 L12.1742732,11.9841368 C12.2119225,12.0981044 12.2589191,12.2106648 12.3161383,12.324292 L12.4097434,12.4958422 L12.5539322,12.7415801 L12.275,13.245 L12.744,13.721 L13.2504106,13.3900726 L13.6629563,13.6564558 C13.7785451,13.7226805 13.9109826,13.7781695 14.0734768,13.8299757 L14.2464791,13.8808154 L14.5113855,13.9529947 L14.681,14.501 L15.387,14.505 L15.5578169,13.9567502 L16.0161704,13.8262965 C16.1302934,13.7886668 16.2430018,13.7416971 16.3567728,13.6845136 L16.5285359,13.5909689 L16.7964212,13.4340802 L17.0558466,13.6045944 L17.281,13.757 L17.757,13.285 L17.4448536,12.7603247 L17.6790529,12.3297177 C17.7341661,12.2193595 17.7809507,12.1063754 17.8214843,11.9849364 L17.8778563,11.7957081 L17.9488066,11.5279254 L18.498,11.358 L18.498,10.63 L18.0031675,10.4888864 L17.7303064,9.79551141 L17.6490338,9.61473286 C17.6360737,9.58813292 17.6232424,9.56296337 17.6102941,9.53872239 L17.4266632,9.22254542 L17.705,8.718 L17.234,8.243 L16.7520325,8.55969302 L16.3083472,8.31884453 C16.1978457,8.26376338 16.0847118,8.21700497 15.9631121,8.17649398 L15.7736341,8.12015365 L15.5058394,8.04933343 L15.335,7.499 Z M15.0127403,9.02017937 C16.1146659,9.02017937 16.967022,9.87173438 16.967022,10.9730942 C16.967022,12.0640743 16.0894015,12.926009 15.0127403,12.926009 C13.9126602,12.926009 13.0494815,12.067327 13.0494815,10.9730942 C13.0494815,9.87886138 13.9126602,9.02017937 15.0127403,9.02017937 Z M15.0127403,10.0201794 C14.4637791,10.0201794 14.0494815,10.4323187 14.0494815,10.9730942 C14.0494815,11.5138696 14.4637791,11.926009 15.0127403,11.926009 C15.5411133,11.926009 15.967022,11.5077126 15.967022,10.9730942 C15.967022,10.4242297 15.5625915,10.0201794 15.0127403,10.0201794 Z" id="形状结合" fill-rule="nonzero"></path>
        </g>
    </g>
</svg>