<?xml version="1.0" encoding="UTF-8"?>
<svg width="256px" height="256px" viewBox="0 0 256 256" version="1.1" xmlns="http://www.w3.org/2000/svg" xmlns:xlink="http://www.w3.org/1999/xlink">
    <!-- Generator: Sketch 55.2 (78181) - https://sketchapp.com -->
    <title>logo</title>
    <desc>Created with Sketch.</desc>
    <g id="logo" stroke="none" stroke-width="1" fill="none" fill-rule="evenodd">
        <path d="M89.2748711,228.220146 L24.3216584,156.261244 L146.628162,146.986243 L166.057337,167.056486 L86.8113508,173.190526 L97.2415073,183.925517 L176.349419,178.812872 L199.434474,203.249002 L119.369549,209.513106 L129.86518,220.495894 L209.415848,214.107294 L223.004397,228.550037 C229.923086,236.828627 234.183608,237.025977 226.555058,239.240984 L133.556615,246.986237 C120.90187,247.666183 97.5205216,237.129315 89.2748711,228.220146 Z" id="Fill-388" fill="#DDDDDD" transform="translate(127.464964, 197.001880) rotate(-21.000000) translate(-127.464964, -197.001880) "></path>
        <path d="M17.2899989,8.58481048 L127.655355,61.3504796 L127.655355,97.477835 L57.2531349,65.5004239 L57.2531349,80.5225997 L126.508044,113.103141 L126.508044,147.146231 L57.2531349,115.196126 L57.2531349,130.489891 L126.508044,163.473242 L126.508044,179.291182 C126.508044,186.73123 126.508044,192.484386 126.508044,196.550649 L21.8581695,147.466922 C19.0703801,146.159371 17.2899989,143.357837 17.2899989,140.278639 L17.2899989,8.58481048 Z" id="Fill-388-Copy" fill="#F2F2F2" transform="translate(72.472677, 102.567730) scale(1, -1) translate(-72.472677, -102.567730) "></path>
        <path d="M126.358113,8.40069215 L238.20976,61.7814206 C239.590541,62.4403923 240.46975,63.8341955 240.46975,65.3641621 L240.46975,97.2585922 L164.988399,65.6552254 L164.988399,80.7421869 L235.687961,111.390338 C238.591034,112.648816 240.46975,115.510883 240.46975,118.674995 L240.46975,147.653144 L164.988399,115.565249 L164.988399,130.92497 L238.095241,163.008494 C239.537987,163.641655 240.46975,165.068109 240.46975,166.643676 L240.46975,179.936725 C240.46975,191.144927 241.08723,193.071657 238.138105,197.300916 L126.358113,144.888992 L126.358113,8.40069215 Z" id="Fill-388" fill="#F2F2F2"></path>
    </g>
</svg>